<svg xmlns="http://www.w3.org/2000/svg" xml:space="preserve" style="fill-rule:evenodd;clip-rule:evenodd;stroke-linejoin:round;stroke-miterlimit:2" viewBox="0 0 996 143">
  <path d="M62.76 112.113c-12.8 2.6-33.5 2.5-45.3-.2-7.3-1.6-16.1-5.5-17.4-7.7-.7-1 4.9-23.2 6-24.1.4-.3 7.4-.5 15.6-.3l14.7.3-.6 3.7c-.7 4.7 1.1 12 3.9 15 3.2 3.5 10.6 3.1 15.1-.8 4.2-3.7 6.6-8.6 6.6-13.6 0-3.1-.7-4.4-4.3-7.9-3.6-3.4-6.2-4.7-16.3-7.9-14.4-4.6-21.2-8.8-25.1-15.3-2.5-4.4-2.8-5.7-2.8-14.3 0-8.1.4-10.2 2.5-14.4 5-9.8 18.1-18.8 33-22.5 11.3-2.8 32.1-2.8 42-.1 7.6 2.2 15 5.7 15 7.2 0 1.3-5 20.1-5.9 22.4-.8 1.9-1.7 2-14.9 2.1l-14 .1-.4-8.6c-.4-7.9-.7-8.7-3.3-11-2.3-1.9-3.6-2.3-6.4-1.8-7.2 1.1-13.1 8.1-13.1 15.3 0 2.4.4 5.3 1 6.3 1.7 3.3 7.5 6 19.6 9.1 6.6 1.7 13.9 4.2 16.4 5.4 11.8 6.1 16.8 18.1 13.6 33.4-3.6 17-13.9 25.9-35.2 30.2Zm75 0c-.3.5-8.4.9-18 .9h-17.4l.5-2.2c.2-1.3 1.8-9 3.5-17.3 1.7-8.2 3.5-16.8 4-19 .5-2.2 2.3-10.7 4-19 1.7-8.2 3.3-15.8 3.6-16.8.5-1.6 1.9-1.7 14.6-1.5l14.1.3 3.8 11.4 4.6-3.5c10.1-7.7 21.2-11 31.6-9.4 5.5.8 10.1 4.5 11.7 9.6l1.1 3.3 6-4.4c11.8-8.7 25.6-11.2 35.3-6.6 10 4.9 11.3 11.4 6.6 33.6-1.7 8.3-4.4 20.9-5.9 28l-2.7 13-17.2.3c-11.6.2-17.2-.1-17.2-.8 0-.9 3.1-16.3 6.9-34.5 3.8-18 4.1-19.8 2.8-22.4-2.9-5.9-14.8-1-16.1 6.6-.4 2.1-1.1 5.8-1.7 8.3-.5 2.5-2.3 11-4 19-1.6 8-3.5 16.6-4.1 19.3l-1.2 4.7h-15.7c-8.7 0-16-.3-16.2-.7-.2-.5 2-12 4.9-25.8 3-13.7 5.4-26.3 5.4-27.8 0-7.1-4.9-8.7-11.7-3.8-3.4 2.4-4.1 3.6-5.1 8.7-.7 3.3-1.7 7.7-2.2 9.9-.5 2.2-2.5 11.6-4.5 20.8-1.9 9.3-3.7 17.3-4.1 17.8Zm795.3-5.6-1.3 6-17.8.3-17.8.2.7-4.2c.4-2.4 2.4-12.2 4.5-21.8 2-9.6 5.2-24.8 7.1-33.8l3.3-16.3 14.5.3 14.4.3 1.4 5c.8 2.8 1.7 5.2 1.9 5.4.2.2 3.1-1.5 6.5-3.9 8.4-5.9 14.8-8.1 23.4-8.2 9.3-.1 15.3 2.5 19.1 8.1 2.5 3.9 2.6 4.6 2.1 11.9-.4 4.2-3 18.7-5.9 32.2l-5.3 24.5-17.9.3-17.8.2.5-2.2c5.8-25.7 10.9-54.2 10.1-55.6-2.7-4.2-7.3-4-12.5.6-2.4 2.2-3.5 4.3-4.5 9.3-2.1 9.8-7.4 34.7-8.7 41.4Zm-175.5 5.5c-7.3 1.9-24.9 2.6-32.2 1.3-18.3-3.2-27.3-13.7-27.9-32.4-.5-16.8 8.1-32.2 22-39.1 8.7-4.3 16.2-5.9 29.4-6 26-.1 37.3 6 40.9 22.4 3.8 16.8-1.9 35.6-13.5 45-6 4.8-9.6 6.5-18.7 8.8Zm-22.9-12.7c4.2 6.4 11.7 1.2 15.8-11 4.5-13.7 6.3-34.8 3.3-39.1-3.3-4.8-9.9-1.1-14.2 8-6 12.7-8.8 36.2-4.9 42.1Zm122 13.2c-8.2 1.8-26.8 1.8-33.8.1-14.5-3.6-21.7-11.7-23.6-26.6-1.8-15 2.7-28.8 12.5-37.8 10.2-9.2 19.9-12.3 39.8-12.3 11.5-.1 14.8.3 20.2 2.1 12.9 4.3 17.9 10.2 19.6 23.3 3.4 26.8-9.6 45.9-34.7 51.2Zm-20.8-12.9c3 4.6 8.6 2.4 13-5 5.6-9.6 9.7-39.6 6.1-45.1-1.9-2.9-3.5-3.1-7.5-1-5.3 2.7-9.7 13-12.6 29.5-1.8 10.3-1.5 17.9 1 21.6Zm-545.3 11.1c-3.7 1.8-7.6 2.6-13 2.9-8.5.4-12.3-.6-17.6-4.8-6.4-5.1-8.5-18.4-4.2-26.7 2.2-4.1 9.9-9.7 16.1-11.6 6.2-1.9 24-4.1 31.7-3.9 3.3.1 6.2-.3 6.7-1 1.4-1.7 2-10.7.9-13.8-1.2-3.4-3.5-4.8-7.8-4.8-5 0-8.8 2.6-11.3 7.8l-2.2 4.7h-12.4l-12.3.1.6-3.6c1.4-8.5 2.5-12.3 3.7-13.1 4.2-2.6 18.7-6.1 28.4-6.9 10.7-.8 25.1 0 31.1 1.8 7.4 2.3 13.3 7.3 15.5 13.1 1.8 4.6 1.1 18.2-1.6 30.6-1.4 6.6-3.2 15.4-4.1 19.5-2.6 13-1.2 12.1-17.1 11.8l-13.8-.3-1.4-5.2c-.8-2.9-1.8-5.3-2.4-5.3-.5 0-2.5 1.4-4.5 3.1-2 1.8-6 4.3-9 5.6Zm-1.6-15.8c2.4 2.9 3.1 3.2 6.3 2.6 7.4-1.3 10.8-6.4 12.6-18.9l.7-4.8-4.4.7c-7.5 1.1-10.6 2.5-13.8 6.1-1.6 1.9-3 4.5-3 5.9 0 1.3-.2 3-.6 3.8-.3.8.7 2.9 2.2 4.6Zm99.5 9.6-1.6 8-17.7.3c-14.3.2-17.8 0-17.8-1.1 0-1.2 6.5-32.4 9.1-43.7.6-2.5 2.2-10.3 3.7-17.5l2.7-13 14.2-.3 14.1-.3 1.3 5.8c.7 3.2 1.5 6.2 1.9 6.6.4.5 2.8-1.3 5.3-4 6.6-7.1 12-9.5 21.5-9.6 7.9 0 14.2 2 14.2 4.6 0 .6-.7 4.4-1.5 8.2-.9 3.9-2.2 10.5-3.1 14.8-2.5 13-1.8 12.2-12 12.2h-8.9l-1.3-7.5c-1.4-8.4-3.3-12-6.3-12s-7.7 2.7-8.2 4.7c-1.6 5.9-4.8 20.8-9.6 43.8Zm102 8.8c-4 .8-26.2.6-29.6-.2-4.6-1.2-7.2-2.8-9.7-6.3-2-2.9-2.3-4.4-2.2-12.3.1-5.7 1.1-13.4 2.8-21 1.5-6.6 3.1-14 3.6-16.5s1.2-5.3 1.5-6.2c.6-1.6 0-1.8-5.8-1.8-3.6 0-6.8-.4-7.1-.8-.3-.5.1-3 .8-5.8 1.1-4.6 1.5-5 5.7-6.2 11.9-3.6 15.2-5.5 23.3-13.6l8.1-8 8.8-.5c4.9-.3 9.1-.3 9.3 0 .2.3-.8 5.5-2.1 11.5-1.4 6-2.5 11-2.5 11.1 0 .2 3 .3 6.6.3h6.7l-.7 5.2c-.4 2.8-.9 5.5-1.2 6-.3.4-3.4.8-6.9.8-3.5 0-6.6.4-7 .9-.3.5-.9 3.1-1.5 5.8-.5 2.6-1.8 9.1-3 14.3-4.6 21.1-5.2 25.3-4.1 27.7 1 2.2 3 2.8 7.8 2.4 3.2-.2 3.7 1.5 2.3 7.4-1.1 4.5-1.7 5.4-3.9 5.8Zm69.5-.9c-8.6 1.8-32.9 1.9-41.1.1-12.3-2.5-14.5-3.4-14.5-5.8.1-2.9 2.6-14.6 3.4-15.4.5-.5 16.7-.8 21.3-.4.7.1 1.6 1.9 1.9 4.1.8 4.8 3 6.9 7.8 7.5 3.1.4 4.2 0 6.7-2.4 6.5-6.5 2.8-11.5-11.7-16-16.5-5.1-20.8-9.6-20.8-22.1 0-7.8 1.7-11.4 7.6-16.5 8.3-7.2 18-9.8 36.3-9.7 11.2.1 17.4 1.1 27.3 4.3 1.7.6 3.2 1.4 3.2 1.9 0 2.2-3.4 15.6-4.2 16.5-.5.5-5.6 1-11.3 1h-10.5v-3.2c0-7.7-4-10.9-9.9-7.8-3 1.5-5.1 4.8-5.1 8 0 2.9 5 7.2 9.7 8.5 2.7.6 7.8 2.1 11.5 3.1 13.7 3.9 20.1 14.2 16.4 26.2-3 9.8-10.1 15.2-24 18.1Zm60 29.3c-.2.2-8.1.5-17.5.6l-17.1.2v-2.7c0-1.4 4.7-25 10.5-52.4s10.5-50 10.5-50.1c0-.2 6.4-.2 14.3-.1l14.2.3 1.9 5.8 1.8 5.7 3.4-3c7.3-6.4 16.9-9.8 27-9.6 8.7.2 13.8 2.6 17.9 8.4 3 4.3 3 4.6 2.9 16.5-.2 19.2-5.4 35.5-14.3 44.4-6.4 6.4-10.1 7.8-20.6 7.7-10.2 0-15.1-1.9-21.7-8.2-2.1-2-3.9-3.4-4.2-3.1-.3.3-5.1 21.9-7.7 34.8-.5 2.4-1.1 4.6-1.3 4.8Zm13.7-47.1c7.4 6.4 14.5-.9 18.2-18.7 2-9.3 2.2-19.3.5-21.4-1.6-1.9-5.3-1.9-8.8-.1-5.5 2.8-6 4-10.3 25.9l-2.4 11.9 2.8 2.4Z" style="fill-rule:nonzero"/>
</svg>
